<?xml version="1.0" encoding="utf-8"?>
<!-- Generator: Adobe Illustrator 25.2.1, SVG Export Plug-In . SVG Version: 6.00 Build 0)  -->
<svg version="1.1" id="Layer_1" xmlns="http://www.w3.org/2000/svg" xmlns:xlink="http://www.w3.org/1999/xlink" x="0px" y="0px"
	 viewBox="0 0 226.2 56" style="enable-background:new 0 0 226.2 56;" xml:space="preserve">
<style type="text/css">
	.st0{fill:#FFFFFF;}
</style>
<path class="st0" d="M15,27.9l6.2-13.8h6.3L17.1,36.7h-4.2L2.5,14.1h6.3L15,27.9z"/>
<path class="st0" d="M35,35.6c-1.8-1-3.3-2.5-4.3-4.2c-1-1.8-1.6-3.9-1.6-5.9c0-2.1,0.5-4.1,1.5-5.9c1-1.8,2.5-3.2,4.2-4.2
	c1.8-1,3.9-1.6,5.9-1.6c6.4,0,11.6,5.1,11.6,11.5c0,0.1,0,0.1,0,0.2c0,0.6,0,1.2-0.1,1.8H35.3c0.5,2.8,2.9,4.9,5.7,4.8
	c1,0,1.9-0.2,2.8-0.5c0.8-0.3,1.4-0.9,1.8-1.6h6.6c-0.7,2.2-2.1,4.1-4.1,5.4c-2.1,1.3-4.5,2-7,2C39,37.2,36.9,36.7,35,35.6z
	 M44.3,19.9c-1-0.7-2.2-1.1-3.4-1.1c-1.2,0-2.4,0.4-3.4,1.1c-1,0.7-1.7,1.7-2,2.9h10.7C45.9,21.6,45.2,20.6,44.3,19.9L44.3,19.9z"/>
<path class="st0" d="M71.2,19.5c-0.7-0.2-1.4-0.2-2.2-0.2c-2.3,0.1-4.3,1.3-5.5,3.3v14.2h-6.1V14.1h5.8v2.3c1.7-1.8,4.1-2.8,6.6-2.8
	c0.7,0,1.3,0.1,2,0.2L71.2,19.5z"/>
<path class="st0" d="M79.6,2.3c2.1,0.1,3.8,1.9,3.7,4s-1.9,3.8-4,3.7c-2.1-0.1-3.7-1.8-3.7-3.9c0-2.1,1.8-3.9,3.9-3.9
	C79.5,2.3,79.5,2.3,79.6,2.3z M82.6,36.7h-6V14.1h6.1L82.6,36.7z"/>
<path class="st0" d="M104.9,8.8c-0.6-0.1-1.2-0.2-1.8-0.2c-1.3-0.1-2.5,0.4-3.4,1.3c-0.5,0.6-0.8,1.5-0.8,3.6v0.7h7v5.1h-7v17.5
	h-6.1V19.3H87v-5.1h5.8v-0.9c0-3.6,0.8-5.8,2.4-7.4c1.9-1.8,4.4-2.7,7-2.7c1.2,0,2.4,0.1,3.6,0.4L104.9,8.8z"/>
<path class="st0" d="M131.7,36.7h-5.8v-1.8c-1.7,1.5-4,2.3-6.3,2.3c-3.3,0-6.4-1.4-8.5-3.8c-1.9-2.2-2.9-5-2.9-7.9
	c0-6.7,4.9-11.8,11.1-11.8c2.4,0,4.8,0.8,6.6,2.3v-1.9h5.8V36.7z M125.6,22.1c-1.3-1.8-3.4-2.8-5.6-2.8c-3.3,0-5.9,2.7-5.8,6
	c0,0.1,0,0.1,0,0.2c-0.1,3.3,2.4,6,5.6,6.1c0.1,0,0.2,0,0.4,0c2.2,0,4.2-1,5.4-2.8L125.6,22.1z"/>
<path class="st0" d="M152.4,19.5c-0.7-0.2-1.5-0.2-2.2-0.2c-2.3,0.1-4.3,1.3-5.5,3.3v14.2h-6.1V14.1h5.8v2.3
	c1.7-1.8,4.1-2.8,6.6-2.8c0.7,0,1.3,0.1,2,0.2L152.4,19.5z"/>
<path class="st0" d="M157.8,36.7V14.1h5.8V16c1.7-1.5,3.9-2.3,6.1-2.3c2.9,0,5.7,1.3,7.6,3.5c2.1-2.2,5-3.5,8-3.5
	c3,0,5.9,1.3,7.9,3.6c1.6,2.1,2.4,4.8,2.3,7.4v12h-6.1V24.5c0-2-0.4-3.1-1.1-3.9c-0.9-0.9-2.1-1.4-3.4-1.4c-2.2,0.1-4.2,1.2-5.4,3
	c0.1,0.8,0.2,1.7,0.2,2.5v12h-6.1V24.5c0-2-0.4-3.1-1.1-3.9c-0.9-0.9-2.1-1.4-3.4-1.4c-2.1,0.1-4,1.1-5.3,2.8v14.7H157.8z"/>
<path class="st0" d="M223.7,36.7h-5.8v-1.8c-1.7,1.5-4,2.3-6.3,2.3c-3.3,0-6.4-1.4-8.6-3.8c-1.9-2.2-2.9-5-2.9-7.9
	c0-6.7,4.9-11.8,11.1-11.8c2.4,0,4.8,0.8,6.6,2.3v-1.9h5.8V36.7z M217.6,22.1c-1.3-1.8-3.4-2.8-5.6-2.8c-3.3,0-5.9,2.7-5.8,6
	c0,0.1,0,0.1,0,0.2c-0.1,3.3,2.4,6,5.6,6.1c0.1,0,0.2,0,0.4,0c2.2,0,4.2-1,5.4-2.8L217.6,22.1z"/>
<polygon class="st0" points="3.6,44.5 11.6,49.1 3.6,53.8 "/>
<path class="st0" d="M13.9,44.5c0.1,0,7.8,4.5,7.8,4.6s-7.7,4.6-7.8,4.6s-0.2-4.5-0.2-4.6S13.8,44.5,13.9,44.5z"/>
<path class="st0" d="M24.2,44.5c0.2,0,7.6,4.4,7.6,4.6s-7.4,4.6-7.6,4.6s-0.4-4.4-0.4-4.6S24,44.5,24.2,44.5z"/>
<path class="st0" d="M34.5,44.6c0.3,0,7.4,4.2,7.4,4.5s-7.1,4.5-7.4,4.5s-0.6-4.2-0.6-4.5S34.2,44.6,34.5,44.6z"/>
<path class="st0" d="M44.8,44.6c0.4,0,7.2,4.1,7.2,4.5s-6.8,4.5-7.2,4.5S44,49.5,44,49.1S44.3,44.6,44.8,44.6z"/>
<path class="st0" d="M55,44.7c0.5,0,7,4,7,4.5s-6.5,4.5-7,4.5s-0.9-4-0.9-4.5S54.5,44.7,55,44.7z"/>
<path class="st0" d="M65.3,44.7c0.6,0,6.8,3.8,6.8,4.4s-6.2,4.4-6.8,4.4s-1.1-3.8-1.1-4.4S64.7,44.7,65.3,44.7z"/>
<path class="st0" d="M75.6,44.7c0.7,0,6.6,3.7,6.6,4.4s-5.9,4.4-6.6,4.4s-1.3-3.7-1.3-4.4S74.9,44.7,75.6,44.7z"/>
<path class="st0" d="M85.9,44.8c0.8,0,6.4,3.5,6.4,4.4s-5.6,4.4-6.4,4.4s-1.5-3.5-1.5-4.4S85.1,44.8,85.9,44.8z"/>
<path class="st0" d="M96.2,44.8c0.9,0,6.3,3.4,6.3,4.3s-5.3,4.3-6.3,4.3s-1.7-3.4-1.7-4.3S95.3,44.8,96.2,44.8z"/>
<path class="st0" d="M106.5,44.8c1,0,6.1,3.3,6.1,4.3s-5,4.3-6.1,4.3s-1.9-3.3-1.9-4.3S105.5,44.8,106.5,44.8z"/>
<path class="st0" d="M116.8,44.8c1.1,0,5.9,3.1,5.9,4.3s-4.7,4.3-5.9,4.3s-2.1-3.1-2.1-4.3S115.7,44.8,116.8,44.8z"/>
<path class="st0" d="M127.1,44.9c1.2,0,5.7,3,5.7,4.2s-4.4,4.2-5.7,4.2s-2.2-3-2.2-4.2S125.8,44.9,127.1,44.9z"/>
<path class="st0" d="M137.4,44.9c1.3,0,5.5,2.8,5.5,4.2s-4.1,4.2-5.5,4.2s-2.4-2.8-2.4-4.2S136,44.9,137.4,44.9z"/>
<path class="st0" d="M147.7,45c1.4,0,5.3,2.7,5.3,4.2s-3.8,4.2-5.3,4.2s-2.7-2.8-2.7-4.2S146.2,45,147.7,45z"/>
<path class="st0" d="M158,45c1.6,0,5.1,2.6,5.1,4.1s-3.5,4.1-5.1,4.1s-2.8-2.6-2.8-4.1S156.4,45,158,45z"/>
<path class="st0" d="M168.2,45c1.6,0,4.9,2.4,4.9,4.1s-3.2,4.1-4.9,4.1s-3-2.4-3-4.1S166.6,45,168.2,45z"/>
<path class="st0" d="M178.5,45c1.8,0,4.7,2.3,4.7,4.1s-2.9,4.1-4.7,4.1s-3.2-2.3-3.2-4.1S176.8,45,178.5,45z"/>
<path class="st0" d="M188.8,45.1c1.9,0,4.5,2.2,4.5,4s-2.6,4-4.5,4s-3.4-2.2-3.4-4S187,45.1,188.8,45.1z"/>
<path class="st0" d="M199.1,45.1c2,0,4.3,2,4.3,4s-2.4,4-4.3,4s-3.6-2-3.6-4S197.2,45.1,199.1,45.1z"/>
<path class="st0" d="M209.4,45.2c2.2,0.1,4,1.8,4.1,4c-0.1,2.2-1.9,3.9-4.1,4c-2.2-0.3-3.7-2.3-3.4-4.5
	C206.3,46.9,207.6,45.5,209.4,45.2L209.4,45.2z"/>
<circle class="st0" cx="219.7" cy="49.1" r="3.9"/>
</svg>
